<svg xmlns="http://www.w3.org/2000/svg" viewBox="0 0 900 900" role="img" aria-label="Gyro">
  <rect width="900" height="900" fill="#f7f0e2"/>
  <rect y="690" width="900" height="210" fill="#050505"/>
  <g transform="translate(450 480)">
    <ellipse cy="250" rx="300" ry="42" fill="#000" opacity=".25"/>
    <path d="M-230-220c190 30 340 125 460 285-105 105-345 95-520-40 5-110 25-185 60-245z" fill="#d9b678"/>
    <path d="M-110-65c60-95 175-78 245-28 50 35 66 95 50 150-140 30-252-12-350-85z" fill="#7a4323"/>
    <circle cx="-40" cy="-48" r="34" fill="#e34a2d"/><circle cx="62" cy="-12" r="42" fill="#f7f0e2"/><path d="M22-74 110-16" stroke="#7f2f84" stroke-width="18" stroke-linecap="round"/>
  </g>
  <text x="72" y="130" font-family="Georgia, serif" font-size="76" font-weight="800" fill="#050505">Greek American</text>
  <text x="76" y="180" font-family="Inter, Arial" font-size="30" font-weight="900" fill="#1397d5" letter-spacing="4">GYROS</text>
</svg>
